<?xml version="1.0" encoding="UTF-8"?>
<svg xmlns="http://www.w3.org/2000/svg"  height="60px" version="1.1" xmlns:xlink="http://www.w3.org/1999/xlink" viewBox="0 0 212.2 60">
  <defs>
    <style>
      .cls-1 {
        fill: url(#linear-gradient-2);
      }

      .cls-2 {
        fill: none;
      }

      .cls-3 {
        fill: url(#linear-gradient-4);
      }

      .cls-4 {
        fill: url(#linear-gradient-3);
      }

      .cls-5 {
        fill: #0d5c75;
      }

      .cls-6 {
        fill: #4b2c4f;
      }

      .cls-7 {
        fill: url(#linear-gradient);
      }
    </style>
    <linearGradient id="linear-gradient" x1="29.6" y1="59.9" x2="29.6" y2="31.1" gradientTransform="translate(0 59.9) scale(1 -1)" gradientUnits="userSpaceOnUse">
      <stop offset="0" stop-color="#19d1e6"/>
      <stop offset="0" stop-color="#17c3d8"/>
      <stop offset=".2" stop-color="#14a4ba"/>
      <stop offset=".6" stop-color="#107d94"/>
      <stop offset=".8" stop-color="#0d647d"/>
      <stop offset="1" stop-color="#0d5c75"/>
    </linearGradient>
    <linearGradient id="linear-gradient-2" x1="59" y1="29.8" x2="30.2" y2="29.8" gradientTransform="translate(0 59.9) scale(1 -1)" gradientUnits="userSpaceOnUse">
      <stop offset="0" stop-color="#19d1e6"/>
      <stop offset="0" stop-color="#17c3d8"/>
      <stop offset=".2" stop-color="#14a4ba"/>
      <stop offset=".6" stop-color="#107d94"/>
      <stop offset=".8" stop-color="#0d647d"/>
      <stop offset="1" stop-color="#0d5c75"/>
    </linearGradient>
    <linearGradient id="linear-gradient-3" x1="29.4" y1="-.1" x2="29.4" y2="28.7" gradientTransform="translate(0 59.9) scale(1 -1)" gradientUnits="userSpaceOnUse">
      <stop offset="0" stop-color="#844d88"/>
      <stop offset=".3" stop-color="#6c3f70"/>
      <stop offset=".7" stop-color="#533157"/>
      <stop offset="1" stop-color="#4b2c4f"/>
    </linearGradient>
    <linearGradient id="linear-gradient-4" x1="0" y1="29.8" x2="28.8" y2="29.8" gradientTransform="translate(0 59.9) scale(1 -1)" gradientUnits="userSpaceOnUse">
      <stop offset="0" stop-color="#19d1e6"/>
      <stop offset="0" stop-color="#17c3d8"/>
      <stop offset=".2" stop-color="#14a4ba"/>
      <stop offset=".6" stop-color="#107d94"/>
      <stop offset=".8" stop-color="#0d647d"/>
      <stop offset="1" stop-color="#0d5c75"/>
    </linearGradient>
  </defs>
  <!-- Generator: Adobe Illustrator 28.7.5, SVG Export Plug-In . SVG Version: 1.2.0 Build 176)  -->
  <g>
    <g id="Layer_1">
      <g>
        <path class="cls-6" d="M71.5,15.1h6.6v11.9l2.3-1.4c.7-.4,1.1-.7,1.4-1s.6-.7.8-1.2c.2-.5.5-1.2.7-2.3l1.4-6h6.7l-1.9,7.2c-.5,2-1.1,3.5-1.6,4.5-.5.9-1.3,1.8-2.3,2.5l7.4,15.9h-7.4l-5.4-12.9-2.1,1.1v11.8h-6.6V15.1Z"/>
        <path class="cls-6" d="M95.6,43.5c-1.5-1.5-2.3-3.9-2.3-7.3V15.1h6.6v21.1c0,1.3.2,2.3.7,2.7.5.5,1.3.7,2.5.7s2-.2,2.5-.7.7-1.4.7-2.7V15.1h6.6v21.1c0,3.4-.8,5.8-2.3,7.3s-4,2.2-7.5,2.2-5.9-.7-7.5-2.2h0Z"/>
        <path class="cls-6" d="M118,43.5c-1.5-1.5-2.3-3.9-2.3-7.3v-12.3c0-3.4.8-5.8,2.3-7.3s4-2.2,7.4-2.2,5.9.7,7.4,2.2,2.2,3.9,2.2,7.3v1.3h-6.4v-1.3c0-1.3-.2-2.3-.6-2.7-.4-.5-1.3-.7-2.5-.7s-2.1.2-2.5.7-.6,1.4-.6,2.7v12.3c0,1.3.2,2.3.6,2.7.4.5,1.3.7,2.5.7s2.1-.2,2.5-.7c.4-.5.7-1.4.7-2.7v-1.6h6.5v1.6c0,3.4-.8,5.8-2.3,7.3s-4,2.2-7.4,2.2-5.9-.7-7.4-2.2h0Z"/>
        <path class="cls-6" d="M148.6,15.1h6.6v11.9l2.3-1.4c.7-.4,1.1-.7,1.4-1,.3-.3.6-.7.8-1.2s.5-1.2.7-2.3l1.4-6h6.7l-1.9,7.2c-.5,2-1.1,3.5-1.6,4.5-.5.9-1.3,1.8-2.3,2.5l7.4,15.9h-7.4l-5.4-12.9-2.1,1.1v11.8h-6.6V15.1h0Z"/>
        <path class="cls-6" d="M172.7,43.5c-1.5-1.5-2.3-3.9-2.3-7.3V15.1h6.6v21.1c0,1.3.2,2.3.7,2.7.5.5,1.3.7,2.5.7s2-.2,2.5-.7.7-1.4.7-2.7V15.1h6.6v21.1c0,3.4-.8,5.8-2.3,7.3s-4,2.2-7.5,2.2-5.9-.7-7.5-2.2Z"/>
        <path class="cls-6" d="M195.1,43.5c-1.5-1.5-2.3-3.9-2.3-7.3v-12.3c0-3.4.8-5.8,2.3-7.3s4-2.2,7.4-2.2,5.9.7,7.4,2.2,2.2,3.9,2.2,7.3v1.3h-6.4v-1.3c0-1.3-.2-2.3-.6-2.7-.4-.5-1.3-.7-2.5-.7s-2.1.2-2.5.7-.6,1.4-.6,2.7v12.3c0,1.3.2,2.3.6,2.7.4.5,1.3.7,2.5.7s2.1-.2,2.5-.7.7-1.4.7-2.7v-1.6h6.5v1.6c0,3.4-.8,5.8-2.3,7.3s-4,2.2-7.4,2.2-5.9-.7-7.4-2.2h0Z"/>
      </g>
      <path class="cls-2" d="M19.8,47.5h0c0,.2-.1.3-.2.4h0c-.5.9-.6,1.9-.5,2.9.2,1,.6,2,1.4,2.7.2.2.5.4.8.6.8.5,1.7.8,2.7.8s1.9-.3,2.7-.8c0,0,.1,0,.2,0,.2,0,.4-.3.6-.5l2.3-2.3,2.3,2.3c.9.9,2.1,1.4,3.4,1.4s2.5-.5,3.4-1.4c1.9-1.9,1.9-5,0-6.9l-8.7-8.7c-.1,2.6-.3,5.2-.5,7.8-.2-2.6-.4-5.2-.5-7.8l-8.7,8.7c-.2.2-.4.5-.6.7v.2Z"/>
      <path class="cls-7" d="M30.2,28.1l12.4-12.4c3.6-3.6,3.6-9.4,0-13-.9-.9-1.9-1.6-3-2h-.2c0,0-.3,0-.4-.1C36.7-.2,34.2,0,32,1.1c-.9.4-1.7,1-2.4,1.7-3.6-3.6-9.4-3.6-13,0s-3.6,9.4,0,13l12.4,12.4c0-4.6.3-9.2.6-13.9.4,4.6.6,9.2.6,13.9h0Z"/>
      <path class="cls-1" d="M57.7,31.9c-.4-.7-.9-1.3-1.4-1.8,3.6-3.6,3.6-9.4,0-13s-9.4-3.6-13,0l-12.4,12.4c4.8,0,9.7.2,14.5.6-4.8.4-9.7.6-14.5.6l12.4,12.4c3.6,3.6,9.4,3.6,13,0s1.5-1.8,1.9-2.8c1.1-2.4,1-5.2,0-7.6,0-.3-.3-.5-.4-.8h-.1Z"/>
      <path class="cls-4" d="M38.7,46.8c1.9,1.9,1.9,5,0,6.9s-2.1,1.4-3.4,1.4-2.5-.5-3.4-1.4l-2.3-2.3-2.3,2.3c-.2.2-.4.3-.6.5,0,0-.1,0-.2,0-.8.5-1.7.8-2.7.8s-1.9-.3-2.7-.8c-.3-.2-.5-.4-.8-.6-.7-.7-1.2-1.7-1.4-2.7-.1-1,0-2,.5-2.9h0s.1-.2.2-.3h0c.2-.4.4-.6.6-.8l8.7-8.7c0-2.1-.1-4.2-.2-6.3l-12.4,12.4c-.4.4-.8.9-1.1,1.4,0,0-.1.2-.2.2-.1.2-.2.4-.3.5h0c-1.8,3.5-1.3,7.9,1.6,10.8.4.4.9.8,1.4,1.2,1.5,1,3.3,1.5,5.1,1.5s3.5-.5,5.1-1.5c.1,0,.3-.2.4-.3.4-.3.7-.6,1.1-.9,1.8,1.8,4.2,2.7,6.5,2.7s4.7-.9,6.5-2.7c3.6-3.6,3.6-9.4,0-13l-12.4-12.4c0,2.1,0,4.2-.2,6.3l8.7,8.7h.2Z"/>
      <path class="cls-3" d="M28.1,29.5l-12.4-12.4c-3.6-3.6-9.4-3.6-13,0-.8.8-1.5,1.8-1.9,2.8-1.1,2.4-1,5.2,0,7.6.1.3.3.5.4.8.4.7.9,1.3,1.4,1.8-3.6,3.6-3.6,9.4,0,13s9.4,3.6,13,0l12.4-12.4c-4.8,0-9.6-.2-14.4-.6,4.8-.4,9.6-.6,14.4-.6h.1Z"/>
      <g>
        <path class="cls-5" d="M72.4,49.6h1.1l2.7,5.8h0v-5.8h1.1v8h-1.1l-2.7-5.8h0v5.8h-1.1v-8Z"/>
        <path class="cls-5" d="M88.4,49.6h3.9v1h-2.8v2.4h2.5v1h-2.5v2.6h2.9v1h-4v-8Z"/>
        <path class="cls-5" d="M103,49.6h1.1v3.7l1.1-.6c.3-.2.5-.4.7-.5,0-.2.3-.5.4-.9v-.2c.2-.6.3-1,.4-1.4h1.1l-.5,1.9c0,.5-.3.8-.4,1.1-.2.3-.4.5-.7.7l2.2,4.3h-1.2l-1.9-3.8c-.2,0-.5.3-.8.4l-.3.2v3.2h-1.1v-8h0Z"/>
        <path class="cls-5" d="M118.5,49.6h2.3c.6,0,1.1,0,1.4.2.4.2.6.4.8.7.2.3.2.8.2,1.4s0,1.1-.3,1.5c-.2.4-.5.6-1,.7l1.8,3.5h-1.2l-1.6-3.3h-1.2v3.3h-1.1v-8h-.1ZM120.8,53.3c.4,0,.6,0,.8,0,.2,0,.3-.2.4-.4,0-.2,0-.5,0-.8s0-.6,0-.8c0-.2-.2-.3-.4-.4-.2,0-.5,0-.8,0h-1.2v2.7h1.2Z"/>
        <path class="cls-5" d="M134,49.6h3.9v1h-2.8v2.4h2.5v1h-2.5v2.6h2.9v1h-4v-8h0Z"/>
        <path class="cls-5" d="M149.8,50.6h-1.9v-1h5v1h-1.9v7h-1.1v-7h-.1Z"/>
        <path class="cls-5" d="M163.1,49.6h1.1l2.7,5.8h0v-5.8h1.1v8h-1.1l-2.7-5.8h0v5.8h-1.1v-8Z"/>
        <path class="cls-5" d="M179.1,49.6h1.1v8h-1.1v-8Z"/>
        <path class="cls-5" d="M191.2,49.6h1.1l2.7,5.8h0v-5.8h1.1v8h-1.1l-2.7-5.8h0v5.8h-1.1v-8Z"/>
        <path class="cls-5" d="M207.2,49.6h3.9v1h-2.8v2.4h2.5v1h-2.5v2.6h2.9v1h-4v-8h0Z"/>
      </g>
    </g>
  </g>
</svg>